<svg width="449" height="449" viewBox="0 0 449 449" fill="none" xmlns="http://www.w3.org/2000/svg">
<g id="Logo">
<g id="Background">
<g filter="url(#filter0_i_1_17)">
<circle cx="224.5" cy="224.5" r="224.5" fill="#FFCCDD"/>
</g>
<circle cx="224.5" cy="224.5" r="221.5" stroke="#F23D3D" stroke-width="6"/>
</g>
<g id="Vending Machine">
<g id="Vending Stylo" filter="url(#filter1_d_1_17)">
<line id="Line 1" x1="133.5" y1="55.5" x2="133.5" y2="392.5" stroke="#F23D3D" stroke-width="15" stroke-linecap="round"/>
<line id="Line 2" x1="316.5" y1="55.5" x2="316.5" y2="392.5" stroke="#F23D3D" stroke-width="15" stroke-linecap="round"/>
<line id="Line 3" x1="126" y1="52" x2="324" y2="52" stroke="#F23D3D" stroke-width="10"/>
<line id="Line 4" x1="126" y1="234.5" x2="324" y2="234.5" stroke="#F23D3D" stroke-width="15"/>
</g>
<g id="Lettering">
<path id="V" d="M217.637 216L190.125 92.88H206.237L225.693 183.624L244.237 92.88H259.893L232.685 216H217.637Z" fill="#F23D3D"/>
<path id="M" d="M184.1 388L186.38 264.88H203.252L224.988 364.744L246.876 264.88H263.596L265.876 388H252.044L250.676 298.624L229.852 388H220.124L199.452 298.624L198.084 388H184.1Z" fill="#F23D3D"/>
</g>
</g>
</g>
<defs>
<filter id="filter0_i_1_17" x="0" y="0" width="449" height="453" filterUnits="userSpaceOnUse" color-interpolation-filters="sRGB">
<feFlood flood-opacity="0" result="BackgroundImageFix"/>
<feBlend mode="normal" in="SourceGraphic" in2="BackgroundImageFix" result="shape"/>
<feColorMatrix in="SourceAlpha" type="matrix" values="0 0 0 0 0 0 0 0 0 0 0 0 0 0 0 0 0 0 127 0" result="hardAlpha"/>
<feOffset dy="4"/>
<feGaussianBlur stdDeviation="2"/>
<feComposite in2="hardAlpha" operator="arithmetic" k2="-1" k3="1"/>
<feColorMatrix type="matrix" values="0 0 0 0 0 0 0 0 0 0 0 0 0 0 0 0 0 0 0.25 0"/>
<feBlend mode="normal" in2="shape" result="effect1_innerShadow_1_17"/>
</filter>
<filter id="filter1_d_1_17" x="122" y="47" width="206" height="361" filterUnits="userSpaceOnUse" color-interpolation-filters="sRGB">
<feFlood flood-opacity="0" result="BackgroundImageFix"/>
<feColorMatrix in="SourceAlpha" type="matrix" values="0 0 0 0 0 0 0 0 0 0 0 0 0 0 0 0 0 0 127 0" result="hardAlpha"/>
<feOffset dy="4"/>
<feGaussianBlur stdDeviation="2"/>
<feComposite in2="hardAlpha" operator="out"/>
<feColorMatrix type="matrix" values="0 0 0 0 0 0 0 0 0 0 0 0 0 0 0 0 0 0 0.25 0"/>
<feBlend mode="normal" in2="BackgroundImageFix" result="effect1_dropShadow_1_17"/>
<feBlend mode="normal" in="SourceGraphic" in2="effect1_dropShadow_1_17" result="shape"/>
</filter>
</defs>
</svg>
